<svg width="24" height="24" viewBox="0 0 24 24" fill="none" xmlns="http://www.w3.org/2000/svg">
<g clip-path="url(#clip0)">
<path d="M7.257 9.13201L11.816 6.50001C11.872 6.46781 11.9354 6.45087 12 6.45087C12.0646 6.45087 12.128 6.46781 12.184 6.50001L16.743 9.13201C16.7991 9.1645 16.8456 9.21118 16.8779 9.26735C16.9102 9.32353 16.9271 9.38722 16.927 9.45201V14.715C16.9269 14.7796 16.9098 14.8431 16.8775 14.899C16.8452 14.955 16.7989 15.0015 16.743 15.034L12.184 17.666C12.128 17.6982 12.0646 17.7152 12 17.7152C11.9354 17.7152 11.872 17.6982 11.816 17.666L7.257 15.034C7.20094 15.0015 7.15442 14.9549 7.12212 14.8987C7.08982 14.8425 7.07288 14.7788 7.073 14.714V9.45201C7.07298 9.38724 7.08996 9.32359 7.12225 9.26743C7.15454 9.21127 7.20101 9.16458 7.257 9.13201V9.13201ZM23.852 11.53L18.406 2.05501C18.208 1.71201 17.842 1.45901 17.446 1.45901H6.555C6.159 1.45901 5.793 1.71201 5.595 2.05501L0.149005 11.509C0.0519361 11.6791 0.00088501 11.8716 0.00088501 12.0675C0.00088501 12.2634 0.0519361 12.4559 0.149005 12.626L5.596 22.024C5.793 22.366 6.159 22.541 6.555 22.541H17.448C17.843 22.541 18.208 22.371 18.407 22.029L23.853 12.616C23.95 12.4515 24.0012 12.264 24.0012 12.073C24.0012 11.882 23.95 11.6945 23.853 11.53H23.852ZM19.343 16.086C19.3411 16.1552 19.3214 16.2227 19.2856 16.2819C19.2499 16.3412 19.1993 16.3901 19.139 16.424L12.2 20.426C12.1403 20.4601 12.0728 20.4781 12.004 20.4781C11.9353 20.4781 11.8677 20.4601 11.808 20.426L4.865 16.424C4.80448 16.3903 4.75377 16.3414 4.71783 16.2821C4.6819 16.2229 4.66197 16.1553 4.66 16.086V8.08001C4.66 7.94001 4.743 7.81101 4.864 7.74201L11.8 3.74002C11.92 3.67002 12.072 3.67002 12.192 3.74002L19.135 7.74301C19.1957 7.77664 19.2466 7.82549 19.2827 7.88475C19.3189 7.94401 19.3389 8.01165 19.341 8.08102L19.343 16.086Z" fill="#ffffff"/>
</g>
<defs>
<clipPath id="clip0">
<rect width="24" height="24" fill="white"/>
</clipPath>
</defs>
</svg>
