<svg xmlns="http://www.w3.org/2000/svg" width="24" height="24" fill="none" xmlns:v="https://vecta.io/nano"><g clip-path="url(#A)"><path d="M23.546 10.93L13.067.452a1.55 1.55 0 0 0-2.188 0l-2.17 2.175 2.76 2.76c.645-.215 1.38-.07 1.89.44a1.84 1.84 0 0 1 .438 1.9l2.658 2.66c.645-.223 1.387-.078 1.9.435a1.84 1.84 0 0 1 0 2.604c-.72.72-1.88.72-2.6 0-.54-.54-.674-1.337-.404-1.996l-2.49-2.476v6.525a1.84 1.84 0 0 1 .488.348 1.85 1.85 0 0 1 0 2.6c-.72.72-1.89.72-2.61 0s-.72-1.88 0-2.598c.182-.18.387-.316.605-.406v-6.59c-.217-.09-.424-.222-.6-.4-.545-.545-.676-1.342-.396-2.01L7.636 3.7.45 10.88c-.6.605-.6 1.584 0 2.19l10.48 10.477c.604.604 1.582.604 2.186 0l10.43-10.43c.605-.603.605-1.582 0-2.187z" fill="#ffffff"/></g><defs><clipPath id="A"><path fill="#fff" d="M0 0h24v24H0z"/></clipPath></defs></svg>