<svg width="24" height="24" viewBox="0 0 24 24" fill="none" xmlns="http://www.w3.org/2000/svg">
<g clip-path="url(#clip0)">
<path d="M8.57099 23.429C8.57099 23.504 8.55622 23.5782 8.52753 23.6475C8.49883 23.7168 8.45677 23.7797 8.40375 23.8328C8.35073 23.8858 8.28778 23.9278 8.21851 23.9565C8.14923 23.9852 8.07498 24 7.99999 24H2.28599C2.13442 24 1.98906 23.9398 1.88188 23.8326C1.7747 23.7254 1.71449 23.5801 1.71449 23.4285C1.71449 23.2769 1.7747 23.1316 1.88188 23.0244C1.98906 22.9172 2.13442 22.857 2.28599 22.857H7.99999C8.31599 22.857 8.57099 23.113 8.57099 23.429ZM7.99999 20.57H6.85699C6.70542 20.57 6.56006 20.6302 6.45288 20.7374C6.3457 20.8446 6.28549 20.9899 6.28549 21.1415C6.28549 21.2931 6.3457 21.4384 6.45288 21.5456C6.56006 21.6528 6.70542 21.713 6.85699 21.713H7.99999C8.15156 21.713 8.29693 21.6528 8.4041 21.5456C8.51128 21.4384 8.57149 21.2931 8.57149 21.1415C8.57149 20.9899 8.51128 20.8446 8.4041 20.7374C8.29693 20.6302 8.15156 20.57 7.99999 20.57ZM2.28599 21.713H4.56999C4.72156 21.713 4.86693 21.6528 4.9741 21.5456C5.08128 21.4384 5.14149 21.2931 5.14149 21.1415C5.14149 20.9899 5.08128 20.8446 4.9741 20.7374C4.86693 20.6302 4.72156 20.57 4.56999 20.57H2.28599C2.13442 20.57 1.98906 20.6302 1.88188 20.7374C1.7747 20.8446 1.71449 20.9899 1.71449 21.1415C1.71449 21.2931 1.7747 21.4384 1.88188 21.5456C1.98906 21.6528 2.13442 21.713 2.28599 21.713ZM7.99999 18.286H2.28599C2.13442 18.286 1.98906 18.3462 1.88188 18.4534C1.7747 18.5606 1.71449 18.7059 1.71449 18.8575C1.71449 19.0091 1.7747 19.1544 1.88188 19.2616C1.98906 19.3688 2.13442 19.429 2.28599 19.429H7.99999C8.15156 19.429 8.29693 19.3688 8.4041 19.2616C8.51128 19.1544 8.57149 19.0091 8.57149 18.8575C8.57149 18.7059 8.51128 18.5606 8.4041 18.4534C8.29693 18.3462 8.15156 18.286 7.99999 18.286V18.286ZM16 16H5.71399C5.56242 16 5.41706 16.0602 5.30988 16.1674C5.2027 16.2746 5.14249 16.4199 5.14249 16.5715C5.14249 16.7231 5.2027 16.8684 5.30988 16.9756C5.41706 17.0828 5.56242 17.143 5.71399 17.143H16C16.1516 17.143 16.2969 17.0828 16.4041 16.9756C16.5113 16.8684 16.5715 16.7231 16.5715 16.5715C16.5715 16.4199 16.5113 16.2746 16.4041 16.1674C16.2969 16.0602 16.1516 16 16 16V16ZM2.28599 17.143H3.42899C3.58056 17.143 3.72593 17.0828 3.8331 16.9756C3.94028 16.8684 4.00049 16.7231 4.00049 16.5715C4.00049 16.4199 3.94028 16.2746 3.8331 16.1674C3.72593 16.0602 3.58056 16 3.42899 16H2.28599C2.13442 16 1.98906 16.0602 1.88188 16.1674C1.7747 16.2746 1.71449 16.4199 1.71449 16.5715C1.71449 16.7231 1.7747 16.8684 1.88188 16.9756C1.98906 17.0828 2.13442 17.143 2.28599 17.143V17.143ZM19.429 13.714H16C15.8484 13.714 15.7031 13.7742 15.5959 13.8814C15.4887 13.9886 15.4285 14.1339 15.4285 14.2855C15.4285 14.4371 15.4887 14.5824 15.5959 14.6896C15.7031 14.7968 15.8484 14.857 16 14.857H19.429C19.5806 14.857 19.7259 14.7968 19.8331 14.6896C19.9403 14.5824 20.0005 14.4371 20.0005 14.2855C20.0005 14.1339 19.9403 13.9886 19.8331 13.8814C19.7259 13.7742 19.5806 13.714 19.429 13.714V13.714ZM9.14299 14.857H13.714C13.8656 14.857 14.0109 14.7968 14.1181 14.6896C14.2253 14.5824 14.2855 14.4371 14.2855 14.2855C14.2855 14.1339 14.2253 13.9886 14.1181 13.8814C14.0109 13.7742 13.8656 13.714 13.714 13.714H9.14299C8.99142 13.714 8.84606 13.7742 8.73888 13.8814C8.6317 13.9886 8.57149 14.1339 8.57149 14.2855C8.57149 14.4371 8.6317 14.5824 8.73888 14.6896C8.84606 14.7968 8.99142 14.857 9.14299 14.857ZM2.28599 14.857H6.85699C7.00856 14.857 7.15393 14.7968 7.2611 14.6896C7.36828 14.5824 7.42849 14.4371 7.42849 14.2855C7.42849 14.1339 7.36828 13.9886 7.2611 13.8814C7.15393 13.7742 7.00856 13.714 6.85699 13.714H2.28599C2.13442 13.714 1.98906 13.7742 1.88188 13.8814C1.7747 13.9886 1.71449 14.1339 1.71449 14.2855C1.71449 14.4371 1.7747 14.5824 1.88188 14.6896C1.98906 14.7968 2.13442 14.857 2.28599 14.857V14.857ZM20.57 11.43H11.43C11.2786 11.43 11.1333 11.4902 11.0262 11.5972C10.9192 11.7043 10.859 11.8496 10.859 12.001C10.859 12.1524 10.9192 12.2977 11.0262 12.4048C11.1333 12.5118 11.2786 12.572 11.43 12.572H20.572C20.7234 12.572 20.8687 12.5118 20.9757 12.4048C21.0828 12.2977 21.143 12.1524 21.143 12.001C21.143 11.8496 21.0828 11.7043 20.9757 11.5972C20.8687 11.4902 20.7234 11.43 20.572 11.43H20.57ZM9.71399 12C9.71399 11.8486 9.65383 11.7033 9.54675 11.5962C9.43967 11.4892 9.29443 11.429 9.14299 11.429H5.71399C5.56255 11.429 5.41732 11.4892 5.31024 11.5962C5.20315 11.7033 5.14299 11.8486 5.14299 12C5.14299 12.1514 5.20315 12.2967 5.31024 12.4038C5.41732 12.5108 5.56255 12.571 5.71399 12.571H9.14299C9.29443 12.571 9.43967 12.5108 9.54675 12.4038C9.65383 12.2967 9.71399 12.1514 9.71399 12ZM2.28599 12.571H3.42899C3.58043 12.571 3.72567 12.5108 3.83275 12.4038C3.93983 12.2967 3.99999 12.1514 3.99999 12C3.99999 11.8486 3.93983 11.7033 3.83275 11.5962C3.72567 11.4892 3.58043 11.429 3.42899 11.429H2.28599C2.13455 11.429 1.98932 11.4892 1.88223 11.5962C1.77515 11.7033 1.71499 11.8486 1.71499 12C1.71499 12.1514 1.77515 12.2967 1.88223 12.4038C1.98932 12.5108 2.13455 12.571 2.28599 12.571V12.571ZM21.714 9.143H16C15.8484 9.143 15.7031 9.20321 15.5959 9.31039C15.4887 9.41757 15.4285 9.56293 15.4285 9.7145C15.4285 9.86607 15.4887 10.0114 15.5959 10.1186C15.7031 10.2258 15.8484 10.286 16 10.286H21.714C21.8656 10.286 22.0109 10.2258 22.1181 10.1186C22.2253 10.0114 22.2855 9.86607 22.2855 9.7145C22.2855 9.56293 22.2253 9.41757 22.1181 9.31039C22.0109 9.20321 21.8656 9.143 21.714 9.143V9.143ZM2.28599 10.286H7.99999C8.15156 10.286 8.29693 10.2258 8.4041 10.1186C8.51128 10.0114 8.57149 9.86607 8.57149 9.7145C8.57149 9.56293 8.51128 9.41757 8.4041 9.31039C8.29693 9.20321 8.15156 9.143 7.99999 9.143H2.28599C2.13442 9.143 1.98906 9.20321 1.88188 9.31039C1.7747 9.41757 1.71449 9.56293 1.71449 9.7145C1.71449 9.86607 1.7747 10.0114 1.88188 10.1186C1.98906 10.2258 2.13442 10.286 2.28599 10.286V10.286ZM15.429 7.429C15.429 7.744 15.684 8 16 8H21.714C21.8656 8 22.0109 7.93979 22.1181 7.83261C22.2253 7.72543 22.2855 7.58007 22.2855 7.4285C22.2855 7.27693 22.2253 7.13157 22.1181 7.02439C22.0109 6.91721 21.8656 6.857 21.714 6.857H16C15.9249 6.857 15.8506 6.8718 15.7812 6.90056C15.7119 6.92932 15.6489 6.97147 15.5959 7.0246C15.5428 7.07772 15.5008 7.14079 15.4722 7.21018C15.4435 7.27957 15.4289 7.35393 15.429 7.429V7.429ZM6.85699 6.857C6.70542 6.857 6.56006 6.91721 6.45288 7.02439C6.3457 7.13157 6.28549 7.27693 6.28549 7.4285C6.28549 7.58007 6.3457 7.72543 6.45288 7.83261C6.56006 7.93979 6.70542 8 6.85699 8H7.99999C8.15156 8 8.29693 7.93979 8.4041 7.83261C8.51128 7.72543 8.57149 7.58007 8.57149 7.4285C8.57149 7.27693 8.51128 7.13157 8.4041 7.02439C8.29693 6.91721 8.15156 6.857 7.99999 6.857H6.85699V6.857ZM2.28599 8H4.56999C4.72156 8 4.86693 7.93979 4.9741 7.83261C5.08128 7.72543 5.14149 7.58007 5.14149 7.4285C5.14149 7.27693 5.08128 7.13157 4.9741 7.02439C4.86693 6.91721 4.72156 6.857 4.56999 6.857H2.28599C2.13442 6.857 1.98906 6.91721 1.88188 7.02439C1.7747 7.13157 1.71449 7.27693 1.71449 7.4285C1.71449 7.58007 1.7747 7.72543 1.88188 7.83261C1.98906 7.93979 2.13442 8 2.28599 8V8ZM18.857 5.143C18.857 5.458 19.113 5.714 19.429 5.714H20.571C20.7226 5.714 20.8679 5.65379 20.9751 5.54661C21.0823 5.43943 21.1425 5.29407 21.1425 5.1425C21.1425 4.99093 21.0823 4.84557 20.9751 4.73839C20.8679 4.63121 20.7226 4.571 20.571 4.571H19.43C19.3548 4.57087 19.2804 4.58557 19.2109 4.61427C19.1415 4.64297 19.0784 4.6851 19.0252 4.73824C18.9721 4.79138 18.93 4.85449 18.9013 4.92395C18.8726 4.99341 18.8579 5.06785 18.858 5.143H18.857ZM17.714 5.143C17.7141 5.06793 17.6995 4.99357 17.6708 4.92418C17.6422 4.85479 17.6001 4.79172 17.5471 4.7386C17.4941 4.68547 17.4311 4.64332 17.3617 4.61456C17.2924 4.5858 17.2181 4.571 17.143 4.571H12.57C12.4184 4.571 12.2731 4.63121 12.1659 4.73839C12.0587 4.84557 11.9985 4.99093 11.9985 5.1425C11.9985 5.29407 12.0587 5.43943 12.1659 5.54661C12.2731 5.65379 12.4184 5.714 12.57 5.714H17.142C17.2934 5.714 17.4387 5.65384 17.5457 5.54676C17.6528 5.43967 17.713 5.29444 17.713 5.143H17.714ZM2.28599 5.714H10.286C10.4376 5.714 10.5829 5.65379 10.6901 5.54661C10.7973 5.43943 10.8575 5.29407 10.8575 5.1425C10.8575 4.99093 10.7973 4.84557 10.6901 4.73839C10.5829 4.63121 10.4376 4.571 10.286 4.571H2.28599C2.13442 4.571 1.98906 4.63121 1.88188 4.73839C1.7747 4.84557 1.71449 4.99093 1.71449 5.1425C1.71449 5.29407 1.7747 5.43943 1.88188 5.54661C1.98906 5.65379 2.13442 5.714 2.28599 5.714V5.714ZM7.42899 2.857C7.42899 3.173 7.68399 3.429 7.99999 3.429H19.429C19.5806 3.429 19.7259 3.36879 19.8331 3.26161C19.9403 3.15443 20.0005 3.00907 20.0005 2.8575C20.0005 2.70593 19.9403 2.56057 19.8331 2.45339C19.7259 2.34621 19.5806 2.286 19.429 2.286H7.99999C7.84855 2.286 7.70332 2.34616 7.59623 2.45324C7.48915 2.56033 7.42899 2.70556 7.42899 2.857V2.857ZM2.28599 3.429H5.71399C5.86556 3.429 6.01093 3.36879 6.1181 3.26161C6.22528 3.15443 6.28549 3.00907 6.28549 2.8575C6.28549 2.70593 6.22528 2.56057 6.1181 2.45339C6.01093 2.34621 5.86556 2.286 5.71399 2.286H2.28599C2.13442 2.286 1.98906 2.34621 1.88188 2.45339C1.7747 2.56057 1.71449 2.70593 1.71449 2.8575C1.71449 3.00907 1.7747 3.15443 1.88188 3.26161C1.98906 3.36879 2.13442 3.429 2.28599 3.429V3.429ZM2.28599 1.143H16C16.1516 1.143 16.2969 1.08279 16.4041 0.975612C16.5113 0.868434 16.5715 0.723071 16.5715 0.5715C16.5715 0.419929 16.5113 0.274566 16.4041 0.167388C16.2969 0.0602114 16.1516 0 16 0L2.28599 0C2.13442 0 1.98906 0.0602114 1.88188 0.167388C1.7747 0.274566 1.71449 0.419929 1.71449 0.5715C1.71449 0.723071 1.7747 0.868434 1.88188 0.975612C1.98906 1.08279 2.13442 1.143 2.28599 1.143V1.143Z" fill="#ffffff"/>
</g>
<defs>
<clipPath id="clip0">
<rect width="24" height="24" fill="white"/>
</clipPath>
</defs>
</svg>
