<svg width="24" height="24" viewBox="0 0 24 24" fill="none" xmlns="http://www.w3.org/2000/svg">
<path d="M19.0613 16.3147C17.1733 16.7627 16.72 17.8667 14.0267 18.608C14.0267 18.608 13.8987 18.8 13.5253 18.8907C12.8747 19.0507 10.432 19.1787 10.2133 19.184C9.616 19.1893 9.248 19.0293 9.14667 18.7893C8.83733 18.048 9.58933 17.7227 9.58933 17.7227C9.2 17.4827 9.152 17.2427 9.11467 17.3333C8.99733 17.616 8.93867 18.304 8.624 18.6133C8.19733 19.0453 7.392 18.9013 6.91733 18.6507C6.39467 18.3733 6.95467 17.7227 6.95467 17.7227C6.95467 17.7227 6.672 17.888 6.448 17.5467C6.16 17.0987 5.62133 15.744 7.00267 14.5493C6.93867 14.0587 6.77867 11.952 8.96533 10.4053C8.96533 10.4053 7.968 9.30133 8.34133 8.30933C8.58133 7.65867 8.68267 7.664 8.75733 7.63733C9.03467 7.53067 9.30667 7.41333 9.504 7.19467C10.5013 6.12267 11.7707 6.32533 11.7707 6.32533C11.7707 6.32533 12.368 4.496 12.928 4.85333C13.0987 4.96533 13.7173 6.336 13.7173 6.336C13.7173 6.336 14.3733 5.952 14.448 6.096C14.8427 6.86933 14.8907 8.34667 14.72 9.248C14.4267 10.7307 13.6853 11.5253 13.3867 12.032C13.3173 12.1493 14.1867 12.5173 14.7307 14.032C15.232 15.4133 14.784 16.5813 14.864 16.7093C14.9013 16.7787 15.5253 16.7467 16.624 16.0693C17.2427 15.6853 17.984 15.2533 18.8213 15.248C19.632 15.216 19.6747 16.1707 19.0613 16.3147ZM24 12C24 18.624 18.624 24 12 24C5.376 24 0 18.624 0 12C0 5.376 5.376 0 12 0C18.624 0 24 5.376 24 12ZM20.1653 15.6373C20.0853 14.9813 19.5253 14.5227 18.8107 14.5333C17.744 14.5493 16.8533 15.0987 16.256 15.4613C16.0213 15.6053 15.824 15.712 15.6587 15.792C15.808 13.6373 14.5707 12.256 14.272 11.952C14.6507 11.4027 15.1627 10.608 15.4027 9.376C15.6107 8.32533 15.5467 6.688 15.0667 5.77067C14.9867 5.62133 14.7093 5.22667 14.048 5.41333C13.5787 4.448 13.4187 4.34133 13.2907 4.26133C13.2373 4.22933 12.1493 3.46667 11.2853 5.616C10.6933 5.65867 9.77067 5.872 8.98667 6.72C8.89067 6.82667 8.69867 6.90133 8.496 6.98133H8.50133C8.096 7.12533 7.904 7.46133 7.68533 8.05867C7.37067 8.90133 7.696 9.73333 8.016 10.272C7.15733 11.04 6.224 12.1973 6.288 14.2613C4.64533 16.0053 5.71733 17.792 6.016 18.112C5.936 18.6507 6.19733 19.0507 6.59733 19.264C7.20533 19.5893 8.064 19.728 8.72 19.3973C8.95467 19.648 9.38667 19.888 10.1707 19.888C10.5013 19.888 12.976 19.7493 13.6853 19.5733C14.016 19.4933 14.24 19.3547 14.3893 19.232C14.864 19.0827 16.1707 18.6347 17.3973 17.8453C18.2667 17.28 18.5707 17.1573 19.216 17.0027C19.8507 16.848 20.24 16.272 20.1653 15.6373Z" fill="#ffffff"/>
</svg>
