<svg width="24" height="24" viewBox="0 0 24 24" fill="none" xmlns="http://www.w3.org/2000/svg">
<path d="M11.0835 0.0102187C11.0386 0.0122577 10.8694 0.0265306 10.7063 0.0387644C8.66727 0.189649 6.59973 0.94407 4.90533 2.15522C4.34461 2.55486 3.90215 2.93003 3.40871 3.42347C0.572471 6.26172 -0.595872 10.3234 0.291091 14.2688C0.654031 15.8877 1.42885 17.5169 2.4565 18.8259C4.06934 20.8832 6.27961 22.3329 8.75903 22.9609C9.76833 23.2179 10.6064 23.3218 11.6646 23.3218C12.7086 23.3218 13.4773 23.2281 14.4723 22.9854C15.9016 22.6347 17.1576 22.0577 18.4137 21.1789C19.6167 20.3347 20.7361 19.1521 21.5394 17.8778C22.5752 16.2303 23.1645 14.4115 23.3093 12.4154C23.3399 11.9953 23.3215 10.9554 23.2767 10.5273C23.1869 9.67701 22.9586 8.55557 22.826 8.32109C22.773 8.22934 22.6242 8.11108 22.5141 8.07233C22.4753 8.0601 22.3897 8.04991 22.3204 8.04991C22.0145 8.04991 21.7576 8.30478 21.7576 8.60451C21.7576 8.67587 21.7902 8.84715 21.8371 9.03269C22.2409 10.6027 22.2735 12.3277 21.9289 13.9018C21.4885 15.9183 20.5057 17.6963 19.0233 19.1542C18.3321 19.8332 17.6654 20.3347 16.8029 20.8282C14.7904 21.9802 12.2885 22.4165 9.94164 22.0251C8.15956 21.7294 6.61197 21.0443 5.14185 19.9004C4.45064 19.3622 3.60853 18.4752 3.08655 17.733C2.18531 16.4525 1.61848 15.1027 1.32486 13.5348C1.17601 12.7355 1.12504 11.6752 1.19436 10.8127C1.30039 9.5037 1.62867 8.28847 2.18532 7.13644C2.44223 6.60019 2.60127 6.32085 2.90916 5.85801C3.53717 4.90784 4.36908 4.01885 5.28866 3.31336C6.36729 2.4835 7.64778 1.85345 8.94254 1.51498C9.64191 1.33148 10.2006 1.23972 10.9102 1.18875C13.4773 1.00524 15.973 1.74335 18.0059 3.29093C18.1567 3.40512 18.3158 3.52949 18.3586 3.56823L18.4361 3.63552L18.4055 3.72116C18.2485 4.16158 18.3647 4.71006 18.695 5.09339C18.8643 5.28913 19.1701 5.47264 19.4291 5.53381C19.6065 5.57663 19.9144 5.57663 20.0938 5.53381C20.5485 5.42574 20.9726 5.0363 21.1072 4.60403C21.2581 4.1208 21.1704 3.64368 20.8605 3.25627C20.5179 2.82808 19.9286 2.63642 19.3842 2.77915L19.266 2.80973L19.0988 2.67108C18.4198 2.10221 17.5981 1.57615 16.7335 1.15816C15.3307 0.479183 13.9218 0.114207 12.3171 0.0163357C12.0092 -0.00201514 11.2813 -0.00609307 11.0835 0.0102187V0.0102187Z" fill="#ffffff"/>
<path d="M9.87636 6.71848C9.66023 7.27716 9.19126 8.50055 8.83036 9.43645C8.46946 10.3723 7.7293 12.2951 7.18489 13.7081C6.64252 15.1211 6.1919 16.2834 6.18782 16.2915C6.18171 16.3017 6.75466 16.3078 7.45812 16.3078H8.74064L8.81609 16.0978C8.85891 15.9836 9.00979 15.5799 9.15048 15.2007L9.40739 14.5135H11.3322C12.8655 14.5135 13.257 14.5074 13.2509 14.487C13.2305 14.432 12.9165 13.5348 12.7493 13.0556L12.5699 12.5459L11.2955 12.5357L10.0232 12.5255L10.851 10.2439C11.3485 8.87369 11.685 7.97654 11.6911 7.99693C11.6992 8.01528 12.0295 8.95525 12.4271 10.0848C12.8247 11.2144 13.4813 13.074 13.885 14.2179L14.617 16.2976L15.8934 16.3037C16.5948 16.3058 17.1698 16.3037 17.1698 16.2997C17.1698 16.2956 17.0047 15.8613 16.8008 15.3373C16.5969 14.8112 16.1605 13.6796 15.8302 12.8212C15.4999 11.9627 15.1288 11.0003 15.0044 10.6802C14.8821 10.3601 14.668 9.8055 14.5293 9.44664C14.3907 9.08778 14.0298 8.14781 13.7239 7.35668C13.4181 6.56556 13.151 5.87027 13.1286 5.81114L13.0898 5.70511H10.2658L9.87636 6.71848Z" fill="#ffffff"/>
</svg>
