<svg width="24" height="24" viewBox="0 0 24 24" fill="none" xmlns="http://www.w3.org/2000/svg">
<path d="M12.0575 16.4886C9.52826 16.4886 9.20057 11.7702 8.33562 9.12515C7.72773 9.7284 7.11631 10.4729 6.50301 11.3371C6.25136 12.1264 5.9739 13.0688 5.62421 14.1854C5.16414 15.6582 4.23705 16.6737 2.2088 16.7305L0 16.7317C1.36401 11.4509 4.39191 7.37318 6.5896 7.37318L11.6881 7.37901C14.2351 7.37901 14.5497 12.165 15.4285 14.7977C15.8813 13.7726 16.3541 12.1615 17.1303 9.67977C17.5741 8.25824 18.4512 7.28574 20.3382 7.17264H24C20.7444 12.9884 18.7767 16.4856 16.8253 16.4856L12.0575 16.4886Z" fill="#ffffff"/>
</svg>
