<?xml version="1.0" encoding="UTF-8"?>
<svg fill="none" viewBox="0 0 28 28" xmlns="http://www.w3.org/2000/svg">
<path d="m28 14c0 7.732-6.268 14-14 14-7.732 0-14-6.268-14-14 0-7.732 6.268-14 14-14 7.732 0 14 6.268 14 14zm-25 0.2c0 2.7 1.1 5.5 3.2 7.6s4.9 3.1 7.7 3.2l-10.9-10.8zm0.3-2.6 13.1 13.1c4.9-1.1 8.6-5.5 8.6-10.7h-7v2h4.8c-0.7 3-2.9 5.5-5.8 6.5l-11.5-11.5c1.3-3.5 4.6-6 8.5-6 3 0 5.7 1.5 7.4 3.8l1.5-1.3c-2-2.7-5.2-4.5-8.9-4.5-5.2 0-9.6 3.7-10.7 8.6z" clip-rule="evenodd" fill="#ffffff" fill-rule="evenodd"/>
</svg>
