<svg xmlns="http://www.w3.org/2000/svg" width="24" height="24" fill="none" xmlns:v="https://vecta.io/nano"><path d="M12 9.86a2.14 2.14 0 0 0-1.512.627A2.14 2.14 0 0 0 9.861 12a2.14 2.14 0 0 0 .627 1.512 2.14 2.14 0 0 0 1.512.627 2.14 2.14 0 0 0 1.512-.626A2.14 2.14 0 0 0 14.139 12a2.14 2.14 0 0 0-.626-1.512A2.14 2.14 0 0 0 12 9.861zm-5.992 6.394l-.472-.12C2.018 15.246 0 13.737 0 11.996s2.018-3.25 5.536-4.14l.472-.12.133.468a23.53 23.53 0 0 0 1.363 3.578l.1.213-.1.213a23.31 23.31 0 0 0-1.363 3.578l-.133.467zm-.69-7.305c-2.674.75-4.315 1.9-4.315 3.046s1.64 2.294 4.315 3.046c.327-1.04.722-2.058 1.182-3.046A24.75 24.75 0 0 1 5.317 8.95zm12.675 7.305l-.133-.47a23.35 23.35 0 0 0-1.364-3.577l-.1-.213.1-.213c.552-1.153 1.008-2.35 1.364-3.578l.133-.468.473.12c3.517.89 5.535 2.398 5.535 4.14s-2.018 3.25-5.535 4.14l-.473.12zm-.49-4.26c.48 1.04.877 2.06 1.182 3.046 2.675-.752 4.315-1.9 4.315-3.046s-1.64-2.294-4.315-3.046a24.78 24.78 0 0 1-1.182 3.046zM5.3 8.945l-.133-.467c-.99-3.486-.69-5.984.823-6.856 1.483-.856 3.864.155 6.36 2.716l.34.35-.34.35a23.55 23.55 0 0 0-2.422 2.967l-.135.193-.235.02c-1.276.1-2.542.305-3.785.6l-.472.12zm1.896-6.63c-.268 0-.505.058-.705.173-.994.573-1.17 2.565-.485 5.253a25.12 25.12 0 0 1 3.233-.501c.627-.892 1.313-1.742 2.052-2.544-1.56-1.52-3.037-2.38-4.095-2.38zm9.59 20.362c-1.425 0-3.255-1.073-5.154-3.023l-.34-.35.34-.35a23.53 23.53 0 0 0 2.421-2.968l.135-.193.234-.02c1.277-.1 2.543-.304 3.787-.61l.472-.12.134.468c.987 3.484.688 5.983-.824 6.854a2.38 2.38 0 0 1-1.205.308zm-4.096-3.38c1.56 1.52 3.037 2.38 4.095 2.38h.001c.267 0 .505-.058.704-.173.994-.573 1.17-2.566.485-5.254a25.03 25.03 0 0 1-3.234.501 24.68 24.68 0 0 1-2.051 2.545zm5.99-10.35l-.472-.12a23.48 23.48 0 0 0-3.787-.61l-.234-.02-.135-.193c-.725-1.053-1.534-2.046-2.42-2.967l-.34-.35.34-.35c2.494-2.56 4.874-3.57 6.36-2.716 1.512.872 1.812 3.37.824 6.855l-.134.468zM14.75 7.24a24.94 24.94 0 0 1 3.234.501c.686-2.688.51-4.68-.485-5.253-.988-.57-2.845.304-4.8 2.208.74.802 1.424 1.652 2.05 2.544zM7.206 22.677A2.38 2.38 0 0 1 6 22.369c-1.512-.87-1.812-3.37-.823-6.854l.132-.468.472.12c1.155.29 2.43.496 3.785.61l.235.02.134.193a23.61 23.61 0 0 0 2.422 2.968l.34.35-.34.35c-1.898 1.95-3.728 3.023-5.15 3.023zm-1.2-6.427c-.686 2.688-.51 4.68.485 5.254.987.563 2.843-.305 4.8-2.208-.74-.803-1.424-1.653-2.052-2.545a24.98 24.98 0 0 1-3.233-.501zm5.984.628a30.68 30.68 0 0 1-2.516-.106l-.235-.02-.135-.193-1.35-2.122-1.166-2.228-.1-.213.1-.213 1.166-2.228 1.35-2.122.135-.193.235-.02c1.675-.142 3.358-.142 5.033 0l.234.02.134.193c.96 1.377 1.8 2.832 2.517 4.35l.1.213-.1.213c-.714 1.52-1.556 2.974-2.517 4.35l-.134.193-.234.02-2.517.106zm-2.197-1.084c1.48.11 2.914.11 4.395 0 .827-1.21 1.56-2.478 2.196-3.798-.634-1.32-1.368-2.6-2.197-3.798a29.03 29.03 0 0 0-4.394 0 28.48 28.48 0 0 0-2.197 3.798c.636 1.32 1.37 2.59 2.197 3.798z" fill="#ffffff"/></svg>