<svg width="516" height="755" viewBox="0 0 516 755" fill="none" xmlns="http://www.w3.org/2000/svg">
<g clip-path="url(#clip0)">
<path d="M258 234L78.6423 726.812L45.7723 714.849C22.4108 706.346 10.3705 680.51 18.8841 657.152L258 1.11558L258 234Z" fill="black"/>
<path d="M257.858 233L437.215 725.813L470.085 713.849C493.447 705.346 505.487 679.51 496.974 656.153L257.858 0.115639L257.858 233Z" fill="black"/>
<path d="M24.1912 433.115C27.0797 425.237 34.5782 420 42.9687 420H464.531C472.922 420 480.42 425.237 483.309 433.115L501.642 483.115C506.428 496.167 496.767 510 482.865 510H24.6354C10.7334 510 1.07206 496.167 5.85787 483.115L24.1912 433.115Z" fill="#0967D2"/>
<path d="M218 530H298V735C298 746.046 289.046 755 278 755H238C226.954 755 218 746.046 218 735V530Z" fill="black"/>
</g>
<defs>
<clipPath id="clip0">
<rect width="516" height="755" fill="white"/>
</clipPath>
</defs>
</svg>
