<svg width="516" height="755" viewBox="0 0 516 755" fill="none" xmlns="http://www.w3.org/2000/svg">
<rect width="516" height="755" fill="black"/>
<path d="M258 234L78.6423 726.812L45.7723 714.849C22.4108 706.346 10.3705 680.51 18.8841 657.152L258 1.11558L258 234Z" fill="white"/>
<path d="M257.858 233L437.215 725.813L470.085 713.849C493.447 705.346 505.487 679.51 496.974 656.153L257.858 0.115639L257.858 233Z" fill="white"/>
<path d="M28.1912 433.115C31.0797 425.237 38.5782 420 46.9687 420H468.531C476.922 420 484.42 425.237 487.309 433.115L505.642 483.115C510.428 496.167 500.767 510 486.865 510H28.6354C14.7334 510 5.07206 496.167 9.85787 483.115L28.1912 433.115Z" fill="#0967D2"/>
<path d="M218 530H298V735C298 746.046 289.046 755 278 755H238C226.954 755 218 746.046 218 735V530Z" fill="white"/>
</svg>
