<svg width="32" height="32" viewBox="0 0 32 32" fill="none" xmlns="http://www.w3.org/2000/svg">
<g clip-path="url(#clip0)">
<rect width="32" height="32" fill="#120F08"/>
<path d="M10.0123 0.335829L-0.969679 30.4169C-0.989737 30.4719 -1 30.5299 -1 30.5884V32.5C-1 32.7761 -0.776142 33 -0.5 33H2.15255C2.36144 33 2.54832 32.8701 2.62117 32.6744L9.99991 12.844C10.1651 12.4001 10.7973 12.4133 10.944 12.8636L17.3876 32.6548C17.4546 32.8607 17.6465 33 17.863 33H21.3031C21.6453 33 21.8863 32.664 21.7767 32.3398L10.9556 0.347097C10.8043 -0.100279 10.1743 -0.107804 10.0123 0.335829Z" fill="#F9AB01"/>
<path d="M18.1615 18H2.33852C2.13406 18 1.95021 18.1245 1.87428 18.3143L0.274278 22.3143C0.142905 22.6427 0.384784 23 0.738517 23H19.7615C20.1152 23 20.3571 22.6427 20.2257 22.3143L18.6257 18.3143C18.5498 18.1245 18.3659 18 18.1615 18Z" fill="#F9AB01"/>
<path d="M13.2194 -0.341885L14.886 4.65811C14.9541 4.86229 15.1452 5 15.3604 5H21C21.2761 5 21.5 5.22386 21.5 5.5V24.9144C21.5 24.971 21.5096 25.0273 21.5285 25.0808L24.3823 33.1664C24.4528 33.3663 24.6418 33.5 24.8538 33.5H26C26.2761 33.5 26.5 33.2761 26.5 33V5.5C26.5 5.22386 26.7239 5 27 5H32.5C32.7761 5 33 4.77614 33 4.5V-0.5C33 -0.776142 32.7761 -1 32.5 -1H13.6937C13.3524 -1 13.1114 -0.665653 13.2194 -0.341885Z" fill="#F9AB01"/>
</g>
<defs>
<clipPath id="clip0">
<rect width="32" height="32" fill="white"/>
</clipPath>
</defs>
</svg>
