<svg width="60" height="90" viewBox="0 0 60 90" fill="none" xmlns="http://www.w3.org/2000/svg">
<g clip-path="url(#clip0)">
<path d="M3.18012 65.5591L29.0743 2.16636C29.4129 1.33722 30.5871 1.33722 30.9257 2.16636L56.8203 65.5601C56.934 65.8385 56.9164 66.1532 56.7725 66.4171L52.0139 75.1413C51.6093 75.8829 50.5243 75.8198 50.2085 75.0362L30.927 27.2C30.5906 26.3652 29.4089 26.365 29.0722 27.1996L9.78988 74.9922C9.47418 75.7747 8.391 75.8386 7.98554 75.0986L3.22889 66.4177C3.08409 66.1535 3.06617 65.838 3.18012 65.5591Z" fill="white"/>
<path d="M25 60.4V89C25 89.5523 25.4477 90 26 90H34C34.5523 90 35 89.5523 35 89V60.4C35 59.8477 34.5523 59.4 34 59.4H26C25.4477 59.4 25 59.8477 25 60.4Z" fill="white"/>
<path d="M3.48945 54C2.77864 54 2.29477 53.2793 2.5639 52.6214L6.24572 43.6214C6.39947 43.2455 6.76521 43 7.17127 43H51.8561C52.2482 43 52.6042 43.2292 52.7665 43.5862L56.8574 52.5862C57.1583 53.2483 56.6743 54 55.947 54H3.48945Z" fill="#F9AB01"/>
</g>
<defs>
<clipPath id="clip0">
<rect width="60" height="90" fill="white"/>
</clipPath>
</defs>
</svg>
