<svg width="1000" height="1000" viewBox="0 0 1000 1000" fill="none" xmlns="http://www.w3.org/2000/svg">
<g clip-path="url(#clip0)">
<rect width="1000" height="1000" fill="black"/>
<path d="M500 348L320.642 840.812L245.467 813.451L500 115.116L500 348Z" fill="white"/>
<path d="M499.858 347L679.215 839.813L754.391 812.451L499.858 114.116L499.858 347Z" fill="white"/>
<rect x="460" y="637" width="80" height="248" fill="white"/>
<mask id="path-4-outside-1" maskUnits="userSpaceOnUse" x="-40" y="-40" width="1080" height="1080" fill="black">
<rect fill="white" x="-40" y="-40" width="1080" height="1080"/>
<path d="M1000 500C1000 776.142 776.142 1000 500 1000C223.858 1000 0 776.142 0 500C0 223.858 223.858 0 500 0C776.142 0 1000 223.858 1000 500ZM75 500C75 734.721 265.279 925 500 925C734.721 925 925 734.721 925 500C925 265.279 734.721 75 500 75C265.279 75 75 265.279 75 500Z"/>
</mask>
<path d="M1000 500C1000 776.142 776.142 1000 500 1000C223.858 1000 0 776.142 0 500C0 223.858 223.858 0 500 0C776.142 0 1000 223.858 1000 500ZM75 500C75 734.721 265.279 925 500 925C734.721 925 925 734.721 925 500C925 265.279 734.721 75 500 75C265.279 75 75 265.279 75 500Z" fill="white"/>
<path d="M1000 500C1000 776.142 776.142 1000 500 1000C223.858 1000 0 776.142 0 500C0 223.858 223.858 0 500 0C776.142 0 1000 223.858 1000 500ZM75 500C75 734.721 265.279 925 500 925C734.721 925 925 734.721 925 500C925 265.279 734.721 75 500 75C265.279 75 75 265.279 75 500Z" stroke="black" stroke-width="80" mask="url(#path-4-outside-1)"/>
<path d="M270.191 543.115C273.08 535.237 280.578 530 288.969 530H710.531C718.922 530 726.42 535.237 729.309 543.115L747.642 593.115C752.428 606.167 742.767 620 728.865 620H270.635C256.733 620 247.072 606.167 251.858 593.115L270.191 543.115Z" fill="#0967D2"/>
</g>
<defs>
<clipPath id="clip0">
<rect width="1000" height="1000" fill="white"/>
</clipPath>
</defs>
</svg>
