<svg width="1000" height="1000" viewBox="0 0 1000 1000" fill="none" xmlns="http://www.w3.org/2000/svg">
<g clip-path="url(#clip0)">
<rect width="1000" height="1000" fill="black"/>
<path d="M499.985 94L473.5 168L752.268 933.332L799.252 916.231L499.985 94Z" fill="white"/>
<path d="M500.268 94L526.752 168L247.985 933.332L201 916.231L500.268 94Z" fill="white"/>
<rect x="475" y="510" width="50" height="450" fill="white"/>
<path d="M315.807 435H305.298L301.709 444.876L279.902 504.876L272.588 525H294H703H724.477L717.083 504.836L695.083 444.836L691.477 435H681H315.807Z" fill="#1400FF" stroke="black" stroke-width="30"/>
<mask id="path-5-outside-1" maskUnits="userSpaceOnUse" x="-40" y="-40" width="1080" height="1080" fill="black">
<rect fill="white" x="-40" y="-40" width="1080" height="1080"/>
<path d="M1000 500C1000 776.142 776.142 1000 500 1000C223.858 1000 0 776.142 0 500C0 223.858 223.858 0 500 0C776.142 0 1000 223.858 1000 500ZM50 500C50 748.528 251.472 950 500 950C748.528 950 950 748.528 950 500C950 251.472 748.528 50 500 50C251.472 50 50 251.472 50 500Z"/>
</mask>
<path d="M1000 500C1000 776.142 776.142 1000 500 1000C223.858 1000 0 776.142 0 500C0 223.858 223.858 0 500 0C776.142 0 1000 223.858 1000 500ZM50 500C50 748.528 251.472 950 500 950C748.528 950 950 748.528 950 500C950 251.472 748.528 50 500 50C251.472 50 50 251.472 50 500Z" fill="white"/>
<path d="M1000 500C1000 776.142 776.142 1000 500 1000C223.858 1000 0 776.142 0 500C0 223.858 223.858 0 500 0C776.142 0 1000 223.858 1000 500ZM50 500C50 748.528 251.472 950 500 950C748.528 950 950 748.528 950 500C950 251.472 748.528 50 500 50C251.472 50 50 251.472 50 500Z" stroke="black" stroke-width="80" mask="url(#path-5-outside-1)"/>
</g>
<defs>
<clipPath id="clip0">
<rect width="1000" height="1000" fill="white"/>
</clipPath>
</defs>
</svg>
