<svg width="1000" height="1000" viewBox="0 0 1000 1000" fill="none" xmlns="http://www.w3.org/2000/svg">
<g clip-path="url(#clip0)">
<rect width="1000" height="1000" fill="black"/>
<rect x="452.818" y="69" width="50" height="875" transform="rotate(20 452.818 69)" fill="white"/>
<rect width="50" height="875" transform="matrix(-0.939693 0.34202 0.34202 0.939693 546.985 69)" fill="white"/>
<rect x="475" y="450" width="50" height="500" fill="white"/>
<rect x="35" y="385" width="930" height="90" fill="#1400FF" stroke="black" stroke-width="30"/>
<mask id="path-5-outside-1" maskUnits="userSpaceOnUse" x="-40" y="-40" width="1080" height="1080" fill="black">
<rect fill="white" x="-40" y="-40" width="1080" height="1080"/>
<path d="M1000 500C1000 776.142 776.142 1000 500 1000C223.858 1000 0 776.142 0 500C0 223.858 223.858 0 500 0C776.142 0 1000 223.858 1000 500ZM50 500C50 748.528 251.472 950 500 950C748.528 950 950 748.528 950 500C950 251.472 748.528 50 500 50C251.472 50 50 251.472 50 500Z"/>
</mask>
<path d="M1000 500C1000 776.142 776.142 1000 500 1000C223.858 1000 0 776.142 0 500C0 223.858 223.858 0 500 0C776.142 0 1000 223.858 1000 500ZM50 500C50 748.528 251.472 950 500 950C748.528 950 950 748.528 950 500C950 251.472 748.528 50 500 50C251.472 50 50 251.472 50 500Z" fill="white"/>
<path d="M1000 500C1000 776.142 776.142 1000 500 1000C223.858 1000 0 776.142 0 500C0 223.858 223.858 0 500 0C776.142 0 1000 223.858 1000 500ZM50 500C50 748.528 251.472 950 500 950C748.528 950 950 748.528 950 500C950 251.472 748.528 50 500 50C251.472 50 50 251.472 50 500Z" stroke="black" stroke-width="80" mask="url(#path-5-outside-1)"/>
</g>
<defs>
<clipPath id="clip0">
<rect width="1000" height="1000" fill="white"/>
</clipPath>
</defs>
</svg>
