<svg xmlns="http://www.w3.org/2000/svg" width="24" height="24" fill="none" xmlns:v="https://vecta.io/nano"><g clip-path="url(#A)"><path d="M14.05 2.75l4.935 2.85c.816-.86 2.173-.893 3.032-.077a2.15 2.15 0 0 1 .377.477c.59 1.028.232 2.34-.796 2.928a2.13 2.13 0 0 1-.558.223v5.7a2.13 2.13 0 0 1 1.58 2.569c-.048.204-.127.4-.232.58-.592 1.023-1.9 1.374-2.927.782a2.13 2.13 0 0 1-.526-.429l-4.905 2.832a2.14 2.14 0 0 1-1.361 2.706A2.15 2.15 0 0 1 12 24a2.14 2.14 0 0 1-2.052-2.745l-4.936-2.847a2.14 2.14 0 1 1-3.096-2.956c.283-.297.646-.506 1.044-.603v-5.7A2.14 2.14 0 0 1 1.38 6.566c.047-.198.123-.39.224-.566.592-1.024 1.902-1.374 2.927-.782a2.08 2.08 0 0 1 .48.377l4.938-2.85A2.14 2.14 0 0 1 11.39.088C11.587.03 11.794 0 12 0c1.18-.001 2.14.954 2.14 2.134a2.14 2.14 0 0 1-.089.617zm-.515.877l-.058.058 6.46 11.2c.026-.01.056-.016.082-.023V9.146c-1.145-.283-1.842-1.442-1.558-2.588l.02-.072-4.946-2.858zm-3.015.06l-.06-.06L5.515 6.48c.327 1.135-.327 2.318-1.46 2.645l-.076.02v5.708l.084.023 6.46-11.19zm2.076.507c-.4.112-.803.112-1.192 0l-6.46 11.19a2.17 2.17 0 0 1 .6 1.041h12.91a2.15 2.15 0 0 1 .603-1.044L12.597 4.194zm.986 16.227l4.913-2.838-.038-.142H5.542l-.02.083 4.94 2.852c.388-.404.934-.653 1.54-.653a2.14 2.14 0 0 1 1.583.698z" fill="#ffffff"/></g><defs><clipPath id="A"><path fill="#fff" d="M0 0h24v24H0z"/></clipPath></defs></svg>