<svg width="24" height="24" viewBox="0 0 24 24" fill="none" xmlns="http://www.w3.org/2000/svg">
<path d="M14.3694 11.6573C14.2641 11.6897 13.6674 11.8716 13.5136 11.9178C13.5136 11.9178 13.7355 11.8805 13.7492 12.0539C13.7986 12.6789 13.847 13.3045 13.8942 13.9295C13.8951 13.9415 13.875 13.9553 13.8413 13.9989C13.0788 13.5841 12.3461 13.116 11.5912 12.5776C11.6579 12.5442 11.7028 12.5193 11.7393 12.5007C11.397 12.6194 11.0297 12.7496 10.6403 12.8906L10.6394 12.891C10.7599 12.8603 10.7754 12.9119 10.7812 13.1053C10.7839 13.2084 10.7817 13.312 10.7817 13.4156C10.7626 14.1785 10.611 14.9178 10.3793 15.6421C10.3224 15.8194 10.2837 15.8341 10.1557 15.719C9.57909 15.2015 9.09316 14.6142 8.79352 13.8904C8.73127 13.7401 8.71305 13.6815 8.77218 13.633L8.33427 13.8126C8.37606 13.8602 8.43474 13.9011 8.45653 13.9567C8.65988 14.4712 8.9533 14.9454 9.32301 15.3571C9.50128 15.5558 9.69423 15.7416 9.88718 15.9261C9.94764 15.9839 10.0312 16.0177 10.0859 16.0977C8.91889 16.6201 7.75142 17.0078 6.51727 17.3906C6.5684 17.283 6.58529 17.2368 6.61064 17.1954C7.2246 16.1929 7.73097 15.1379 8.15377 14.0416C8.16622 14.0096 8.21156 13.9211 8.2329 13.8971C8.27558 13.8482 8.28536 13.8566 8.33382 13.8131C8.08975 13.9122 7.86301 14.0189 7.61538 14.1229L7.62739 14.1194C7.59849 14.4946 6.1914 17.0327 5.81751 17.3852C5.62412 17.1212 5.54365 16.8166 5.47474 16.5108C5.38671 16.12 5.39782 15.7265 5.47207 15.3331C5.5023 15.1712 5.59744 15.0654 5.6419 15.0343C5.37293 15.1597 5.20977 15.241 4.94969 15.378C4.95725 15.3433 4.89679 15.7897 4.883 15.9506C4.83499 16.5174 4.97459 17.0429 5.23956 17.5404C5.35381 17.7551 5.35292 17.7627 5.11241 17.8334C4.03119 18.1508 2.94909 18.4647 1.86654 18.7772C1.80341 18.7954 1.73539 18.795 1.61757 18.8097C1.65981 18.6403 1.68026 18.4989 1.73005 18.3687C2.08749 17.4324 2.73124 16.7264 3.55105 16.18C3.81062 16.0058 4.07826 15.844 4.35307 15.695C3.97295 15.8803 3.59728 16.0822 3.23628 16.2774C3.06156 16.4232 2.88507 16.5681 2.70813 16.7117C2.13906 17.1723 1.65714 17.7067 1.30059 18.3491C1.1272 18.6616 1.0085 18.9928 1.0005 19.3543C0.986717 19.9696 1.25969 20.4684 1.65492 20.9116C2.07816 21.3864 2.58675 21.7559 3.13136 22.0773C4.10632 22.6531 5.1702 23.0092 6.26164 23.2635C7.19881 23.4817 8.15199 23.6414 9.10561 23.7765C9.88896 23.8876 10.683 23.9197 11.4712 23.9961C11.7095 24.0192 11.8527 23.9406 11.954 23.7178C12.2781 23.0043 12.6378 22.3063 12.9481 21.587C13.4505 20.4226 13.8675 19.2276 14.0876 17.9734C14.2436 17.082 14.3374 16.184 14.393 15.2802C14.4572 14.1873 14.4045 13.0906 14.2356 12.009C14.1983 11.7564 14.1889 11.7155 14.3694 11.6573V11.6573ZM10.8466 15.342C11.036 14.5364 11.1693 13.7241 11.164 12.8928C11.1627 12.6683 11.208 12.6465 11.4014 12.755C12.1959 13.2018 12.9908 13.6477 13.7852 14.0949C13.8066 14.1069 13.8239 14.1269 13.8822 14.1767C12.9161 14.8818 11.8682 15.3931 10.7915 15.8519L10.7314 15.8083C10.7701 15.6532 10.8101 15.498 10.8466 15.342V15.342ZM10.4576 16.6486C10.534 16.4254 10.5412 16.4232 10.7417 16.5365C11.5749 17.0076 12.4695 17.3609 13.3998 17.5862C13.4643 17.6018 13.5252 17.6333 13.5927 17.6595C13.3447 17.9334 9.72046 19.4388 9.20431 19.4797C9.23898 19.401 9.26388 19.3321 9.29811 19.268C9.75069 18.4238 10.1468 17.5551 10.4576 16.6486V16.6486ZM9.94898 16.629L9.99788 16.6744C9.97565 16.7446 9.95876 16.8171 9.9303 16.8846C9.53152 17.8383 9.05271 18.7519 8.53699 19.6468C8.47031 19.7624 8.41518 19.8411 8.25913 19.7482C7.52113 19.308 6.85827 18.7799 6.2981 18.1268C6.25986 18.0823 6.23274 18.029 6.17139 17.9352C7.47401 17.5764 8.73794 17.1781 9.94898 16.629V16.629ZM3.01399 21.2513C2.45427 20.7667 1.96034 20.2332 1.71005 19.517C1.67626 19.4205 1.65981 19.3174 1.63936 19.216C1.61091 19.0742 1.65803 19.0008 1.81274 18.9653C2.9442 18.707 4.07298 18.4384 5.2031 18.1744C5.22577 18.169 5.25111 18.1757 5.32047 18.1793C5.2769 18.262 5.25512 18.3166 5.22222 18.3638C4.56113 19.3098 3.89826 20.2541 3.23806 21.2011C3.17404 21.2944 3.11669 21.3407 3.01399 21.2513V21.2513ZM3.33854 21.4874C3.35854 21.4122 3.35854 21.3215 3.40211 21.2642C3.8515 20.6746 4.30692 20.0897 4.7683 19.5094C5.07951 19.1195 5.40761 18.7434 5.76327 18.3189C6.35011 19.0173 7.02276 19.5566 7.84434 20.0074C7.69674 20.0727 7.62294 20.1114 7.54514 20.139C6.25408 20.5947 4.96258 21.0486 3.67153 21.5034C3.64707 21.5118 3.62218 21.5332 3.59995 21.5305C3.51192 21.5198 3.42523 21.502 3.33854 21.4874V21.4874ZM6.34789 22.9238C5.44851 22.6246 4.55135 22.3201 3.75555 21.7857C3.72043 21.7621 3.68309 21.7408 3.64663 21.7185L3.67064 21.6399L8.05907 20.4173C7.98661 20.5489 7.95015 20.6236 7.90614 20.6938C7.46378 21.4025 7.01876 22.1093 6.57818 22.8193C6.52039 22.9114 6.45992 22.9611 6.34789 22.9238V22.9238ZM6.76624 23.0314L6.74445 22.9714L6.87872 22.79C7.41843 22.064 7.96038 21.3402 8.49565 20.6111C8.65481 20.3941 8.64592 20.387 8.88377 20.4782C9.92199 20.8747 11.0064 21.1376 12.111 21.2606C12.2221 21.2731 12.3319 21.2944 12.4422 21.314C12.4568 21.3167 12.4688 21.3331 12.4817 21.3429C12.299 21.5154 8.51032 22.6975 7.06099 23.0292C6.96719 23.0501 6.86449 23.0314 6.76624 23.0314V23.0314ZM12.5133 21.6683C12.2866 22.3001 12.0621 22.9327 11.826 23.5609C11.7073 23.8779 11.6966 23.8801 11.361 23.8267C10.1633 23.6374 8.96601 23.4444 7.76921 23.2506C7.63717 23.2292 7.50779 23.1932 7.37709 23.1639L7.36775 23.1003C7.46556 23.0705 7.56203 23.0345 7.66162 23.0118C8.80285 22.7535 9.94986 22.5148 11.044 22.0867C11.4525 21.9266 11.854 21.7483 12.259 21.5785L12.5475 21.4585C12.532 21.5572 12.5324 21.6163 12.5133 21.6683V21.6683ZM13.4545 18.5607C13.2232 19.3623 12.9873 20.1626 12.7467 20.9614C12.6596 21.2522 12.6533 21.2473 12.3515 21.1922C11.2832 21.0013 10.2413 20.6847 9.24743 20.2488C9.15585 20.2083 9.06649 20.1612 8.93978 20.0998L13.599 17.9005C13.5496 18.1295 13.5154 18.3486 13.4545 18.5607V18.5607ZM13.9151 15.0699C13.8765 15.6183 13.8327 16.1664 13.7835 16.7139C13.767 16.902 13.7435 17.09 13.711 17.2759C13.659 17.5764 13.6545 17.576 13.3691 17.4853C12.6567 17.2549 11.9739 16.9415 11.3347 16.5517C11.1822 16.4596 11.0333 16.3614 10.8657 16.2551L13.9173 14.4137C13.9177 14.6337 13.9297 14.8529 13.9151 15.0699V15.0699ZM8.38895 3.51928C8.32364 3.50573 8.2637 3.47344 8.21645 3.42637C7.74475 2.97868 7.2775 2.52654 6.80936 2.07485C6.79158 2.05751 6.78358 2.03039 6.74934 1.96859C7.8888 2.29447 9.01358 2.49142 10.1535 2.60923L10.1588 2.66747C10.1055 2.69815 10.0521 2.72927 9.99832 2.75905C9.57375 2.99468 9.14829 3.22853 8.7255 3.46727C8.62348 3.52526 8.50372 3.54377 8.38895 3.51928V3.51928ZM9.15185 3.81137C9.15185 3.81137 9.26432 3.70423 9.29678 3.68111C9.68267 3.41036 10.0699 3.14139 10.4554 2.86975C10.5349 2.81374 10.6021 2.73505 10.675 2.87865C10.8733 3.26854 11.0769 3.65621 11.2756 4.04566C11.2845 4.063 11.2729 4.0919 11.2663 4.14703L11.962 4.25417C11.9138 4.2444 11.8684 4.22395 11.829 4.19433C11.7897 4.16472 11.7575 4.12668 11.7348 4.08301C11.0915 2.93022 10.4811 1.76275 10.081 0.498373C10.0299 0.336991 10.0072 0.166272 9.9712 0H9.91963C9.85561 0.0369 9.79515 0.0835808 9.72713 0.109366C8.86732 0.439688 8.00039 0.752227 7.14769 1.10033C6.43725 1.3902 5.74193 1.71918 5.12886 2.19133C4.91012 2.35982 4.78831 2.48697 4.75852 2.61546C4.871 2.92888 5.52987 3.07648 5.52987 3.07648L5.53965 3.07871C5.31691 3.01513 5.29379 2.94089 5.39694 2.73371C5.56721 2.39094 5.86374 2.16732 6.16961 1.95837C6.20162 1.93658 6.29676 1.95126 6.32121 1.98193C6.71333 2.46919 7.09834 2.96223 7.48468 3.45438C7.48779 3.45838 7.48068 3.47038 7.46867 3.51261C7.39621 3.50061 7.32196 3.49039 7.24772 3.47927H7.24861C7.46511 3.52017 8.1262 3.64955 8.40762 3.70112L9.15185 3.81137V3.81137ZM7.16191 1.61382C7.90436 1.19858 8.68637 0.870485 9.47995 0.567727C9.63555 0.508153 9.64177 0.511265 9.66444 0.670424C9.73647 1.17813 9.84494 1.67695 10.029 2.15709C10.0406 2.18733 10.037 2.22334 10.0419 2.26779L7.00809 1.76098L6.99564 1.71963C7.05121 1.68451 7.10456 1.64583 7.16191 1.61382V1.61382Z" fill="#ffffff"/>
<path d="M11.2667 4.14615L11.2658 4.15237L9.15183 3.81138L8.42138 3.69712H8.42005L8.41649 3.69668L7.45843 3.51173C7.30238 3.48639 7.14011 3.46861 6.98228 3.43171C6.54037 3.32901 6.09846 3.22631 5.65966 3.11072L5.64499 3.10761C5.64499 3.10761 4.82163 2.91511 4.76117 2.60257C4.71627 2.76217 4.81452 2.92089 5.05148 3.16007C5.56763 3.68067 6.10913 4.17593 6.62129 4.70009C8.28401 6.40283 8.65434 8.39054 7.87544 10.6094C7.53445 11.5804 6.96406 12.4242 6.32119 13.2195C5.40181 14.3572 4.34238 15.3504 3.22693 16.2849C3.49501 16.1573 4.40684 15.6656 5.661 15.0383C5.97976 14.8787 6.30786 14.7391 6.62973 14.5866C6.87321 14.4678 7.11819 14.352 7.36462 14.2394C7.80209 14.0398 8.32002 13.846 8.77749 13.6481C8.79394 13.6406 8.81261 13.6326 8.83351 13.6241L8.83395 13.6237C9.10959 13.5032 9.41724 13.3867 9.72178 13.2729C9.96674 13.1769 10.2117 13.0813 10.4576 12.987L10.4958 12.9728H10.4962C10.875 12.8145 11.3067 12.6803 11.6708 12.5589C11.6953 12.5465 11.7166 12.5367 11.7388 12.5296C11.9304 12.4673 12.1221 12.4055 12.3141 12.3442C12.7178 12.2095 13.0272 12.1072 13.3353 12.0116L13.4318 11.9801C13.4553 11.9721 13.4767 11.9667 13.4971 11.9623C13.7377 11.8889 13.9813 11.8165 14.2262 11.744C14.2649 11.7253 14.3196 11.7089 14.397 11.6866C15.3164 11.4266 16.2335 11.1571 17.1574 10.9149C18.8979 10.4587 20.646 10.0359 22.4256 9.75584C22.5732 9.73272 22.719 9.70027 22.8862 9.66826C22.8386 9.5829 22.8124 9.52955 22.7804 9.47975C22.0484 8.31254 21.0476 7.33753 19.8617 6.63623C18.6671 5.92535 17.3756 5.45587 16.0428 5.08554C14.722 4.71832 13.3753 4.47602 12.0225 4.26752C11.998 4.26372 11.9738 4.25852 11.95 4.25196C11.7234 4.20925 11.4956 4.17396 11.2667 4.14615V4.14615ZM8.83262 7.14216C8.81306 7.03857 8.85129 6.98389 8.96021 7.00701C9.57595 7.13549 10.1744 7.31733 10.7914 7.57073L8.93709 9.25391C8.9242 9.20056 8.91087 9.173 8.91175 9.14543C8.93532 8.4759 8.95755 7.80636 8.83262 7.14216V7.14216ZM10.9782 7.96285C10.8154 8.84267 10.4642 9.63536 9.99297 10.3751L8.98422 9.62113C9.60485 9.02139 10.2606 8.463 10.9782 7.96285V7.96285ZM10.7256 9.74784C11.0124 9.19256 11.2369 8.61372 11.3636 8.00064C11.3867 7.88861 11.4192 7.81036 11.5494 7.87527C12.0202 8.1109 12.4902 8.3483 12.9592 8.5866C12.9783 8.59638 12.9894 8.62038 13.0188 8.65506L10.6412 9.95901C10.6816 9.8572 10.699 9.8003 10.7256 9.74784V9.74784ZM11.1609 6.9421C11.1613 7.03991 11.1258 7.09059 11.0128 7.05725C10.3642 6.86563 9.71377 6.67758 9.06469 6.48685C9.04379 6.48063 9.02734 6.45929 8.97844 6.4215C9.52216 5.78397 10.1948 5.31139 10.8781 4.78812C11.0475 5.17179 11.1142 5.53234 11.1453 5.89467C11.1751 6.24144 11.1587 6.59266 11.1609 6.9421V6.9421ZM8.25378 5.98181C7.76163 5.15756 7.11388 4.47736 6.3621 3.89007L6.39322 3.84606C6.4439 3.85584 6.49591 3.8625 6.54571 3.87629C6.89203 3.97098 7.23747 4.07012 7.58513 4.16082C7.68472 4.1866 7.76252 4.21906 7.79542 4.32753C7.95369 4.8468 8.11596 5.36474 8.27512 5.884C8.28312 5.90934 8.27601 5.94002 8.25378 5.98181V5.98181ZM8.6828 6.22233L7.96658 4.26529L10.5745 4.76455L10.5905 4.81524C9.91028 5.21225 9.2403 5.62348 8.6828 6.22233ZM8.73881 10.2453C9.00556 10.3347 9.24163 10.5107 9.50438 10.729L7.95013 11.9107L8.73881 10.2453V10.2453ZM6.53948 13.6041C6.82936 13.2629 7.12056 12.9228 7.41308 12.5838C7.45443 12.5358 7.49755 12.4855 7.54912 12.45C8.08839 12.077 8.62945 11.7062 9.17094 11.3363C9.19584 11.3194 9.22785 11.3123 9.2563 11.3007L9.29454 11.3479C8.5086 12.3079 7.55119 13.1137 6.47102 13.7241C6.49369 13.6837 6.51014 13.6388 6.53948 13.6041ZM10.2197 12.4206C9.76346 12.5904 9.31079 12.7696 8.86196 12.9581C8.34091 13.18 7.82743 13.4196 7.31038 13.6512C7.24636 13.6797 7.18101 13.7055 7.11655 13.7321L7.08543 13.6917C7.12499 13.6557 7.16189 13.6157 7.20457 13.5845C8.13952 12.9057 8.99533 12.1419 9.72889 11.2452C9.84581 11.1025 9.87071 11.1038 9.97563 11.2527C10.1659 11.5239 10.2913 11.8227 10.3633 12.1468C10.3953 12.2908 10.3624 12.3668 10.2197 12.4206V12.4206ZM10.5936 12.281C10.574 12.1601 10.5576 12.1019 10.5567 12.0441C10.5503 11.6359 10.4497 11.2347 10.2628 10.8717C10.2179 10.7828 10.1655 10.7023 10.2931 10.633C11.1547 10.1644 12.0149 9.69404 12.8761 9.22501C12.8876 9.21879 12.9063 9.22546 12.9836 9.22901C12.2465 10.2991 11.4641 11.2861 10.5936 12.281V12.281ZM10.9875 12.0837C11.0448 12.0192 11.072 11.9832 11.1044 11.9534C12.0274 11.1105 12.8743 10.2009 13.5643 9.15299C13.623 9.06407 13.6736 9.00539 13.7914 9.08275C14.4343 9.50376 15.0443 9.96568 15.5951 10.5027C15.6164 10.5236 15.6293 10.5539 15.6525 10.5899L10.9875 12.0837V12.0837ZM19.085 7.14305C20.1418 7.73321 21.0921 8.4963 21.8966 9.40062C21.9161 9.42285 21.9263 9.45308 21.9632 9.5211C20.0938 9.65848 18.2812 9.98391 16.4865 10.4183L16.4603 10.3436C16.5687 10.2387 16.6754 10.1324 16.7857 10.0297C17.6371 9.23524 18.3266 8.32252 18.8121 7.25953C18.9072 7.05058 18.9157 7.04747 19.085 7.14305V7.14305ZM18.6574 7.04346C18.6205 7.11504 18.592 7.19284 18.5449 7.25686C18.1359 7.80858 17.7291 8.36253 17.3103 8.90714C16.9497 9.37572 16.575 9.83364 16.206 10.2956C16.1477 10.3685 16.0868 10.4383 16.0041 10.537C15.5093 9.78874 14.9322 9.15743 14.1889 8.60749C15.6203 7.95903 17.1 7.42318 18.6147 7.00479L18.6574 7.04346V7.04346ZM15.1087 5.62882C16.1686 5.90534 17.2054 6.25078 18.2088 6.69225C18.2523 6.71136 18.295 6.73448 18.3346 6.76027C18.3524 6.77183 18.3622 6.79583 18.4017 6.84918C16.9749 7.16058 15.5773 7.5937 14.2245 8.1438L14.1871 8.10245C14.2147 8.03265 14.2391 7.96196 14.2698 7.89394C14.5721 7.22041 14.8029 6.52642 14.8753 5.78664C14.8936 5.60347 14.9256 5.5808 15.1087 5.62882V5.62882ZM14.6779 5.78397C14.5428 6.50908 14.2209 7.16083 13.8733 7.80147C13.6434 8.22471 13.6443 8.21448 13.2197 7.99308C12.8587 7.80503 12.4857 7.6392 12.1176 7.46492C12.0323 7.42447 11.9442 7.38846 11.8575 7.35022L11.8442 7.28487C12.75 6.6344 13.7015 6.05004 14.6913 5.53634C14.6859 5.65371 14.6899 5.7204 14.6779 5.78397V5.78397ZM11.5068 7.00656C11.4899 6.27301 11.3912 5.56079 11.0755 4.83791C12.1967 5.01663 13.2522 5.19135 14.3263 5.44787L11.5068 7.00656V7.00656Z" fill="#ffffff"/>
</svg>
