<svg width="24" height="24" viewBox="0 0 24 24" fill="none" xmlns="http://www.w3.org/2000/svg">
<g clip-path="url(#clip0)">
<path d="M19.0188 12.4391H19.8735V11.591H19.0188V12.4391Z" fill="#ffffff"/>
<path fill-rule="evenodd" clip-rule="evenodd" d="M22.72 7.04835C22.72 6.64733 22.6346 6.28576 22.4571 5.98335C22.2861 5.68094 22.0297 5.43113 21.6879 5.2339C20.2682 4.41559 18.8468 3.59727 17.4254 2.77895L17.4243 2.77834C16.0028 1.95991 14.5812 1.14149 13.1613 0.323066C12.3921 -0.117398 11.6558 -0.104249 10.8932 0.342788C10.3037 0.688972 8.48111 1.73746 6.63296 2.80065C4.93634 3.77667 3.21819 4.76507 2.41268 5.2339C1.71583 5.63492 1.38055 6.25289 1.38055 7.05493V16.9423C1.38055 17.3368 1.46602 17.6852 1.63037 17.9876C1.8013 18.2966 2.06426 18.5596 2.41268 18.7634C3.06808 19.1433 4.321 19.8636 5.67524 20.6422L5.67625 20.6427L5.67721 20.6433C7.81352 21.8714 10.2014 23.2442 10.8932 23.6545C11.6558 24.1015 12.3987 24.1212 13.1613 23.6742C14.9234 22.6545 16.688 21.6398 18.452 20.6255L18.4548 20.6239C19.533 20.004 20.6109 19.3841 21.6879 18.7634C22.0429 18.5596 22.2993 18.3032 22.4702 17.9876C22.6346 17.6852 22.72 17.3368 22.72 16.9423V7.04835ZM15.1204 13.721C14.5156 14.7926 13.3651 15.5224 12.0437 15.5224C10.7289 15.5224 9.58501 14.8058 8.9802 13.7408C8.68436 13.2214 8.51344 12.6298 8.51344 11.9921C8.51344 10.0396 10.0912 8.46178 12.0437 8.46178C13.3454 8.46178 14.4827 9.17178 15.0941 10.2236L18.1773 8.44863C16.948 6.33177 14.6602 4.9052 12.0371 4.9052C8.11899 4.9052 4.95029 8.08048 4.95029 11.9921C4.95029 13.274 5.29214 14.4836 5.89038 15.5224C7.11316 17.6458 9.41409 19.0789 12.0437 19.0789C14.6799 19.0789 16.9809 17.6392 18.2036 15.5026L15.1204 13.721ZM18.3154 10.3157H19.0188V10.8876H19.8735V10.3157H20.5769V10.8876H21.1488V11.591H20.5769V12.4391H21.1488V13.1425H20.5769V13.7145H19.8735V13.1425H19.0188V13.7145H18.3154V13.1425H17.75V12.4391H18.3154V11.591H17.75V10.8876H18.3154V10.3157Z" fill="#ffffff"/>
</g>
<defs>
<clipPath id="clip0">
<rect width="24" height="24" fill="white"/>
</clipPath>
</defs>
</svg>
