<svg width="24" height="24" viewBox="0 0 24 24" fill="none" xmlns="http://www.w3.org/2000/svg">
<g clip-path="url(#clip0)">
<path d="M21.7709 0H2.22824C1.76012 0 1.40891 0.396126 1.45022 0.864197L3.2352 20.8671C3.27655 21.3348 3.68109 21.8243 4.13484 21.9507L11.1715 23.9053C11.6246 24.0309 12.3653 24.0317 12.8191 23.907L19.8644 21.9551C20.3183 21.8291 20.7228 21.344 20.7641 20.8754L22.5499 0.864197C22.5912 0.396126 22.2414 0 21.7709 0ZM18.3817 7.22047C18.3814 7.22353 18.379 7.22593 18.376 7.22644C18.3729 7.22695 18.37 7.22537 18.3686 7.22251L12.8556 9.48174C12.7771 9.51391 12.7323 9.59718 12.7486 9.68044C12.7651 9.7637 12.8381 9.82377 12.923 9.82377H17.2112C17.4393 9.82377 17.6566 9.92065 17.8092 10.0903C17.9617 10.2599 18.035 10.4864 18.0108 10.7132L17.3408 16.9986C17.3079 17.307 17.1007 17.569 16.8081 17.6719L12.2565 19.2734C12.085 19.3338 11.8982 19.3343 11.7263 19.2747L7.19595 17.7054C6.9016 17.6034 6.69265 17.3407 6.65956 17.0309L6.35582 14.1844C6.33986 14.0349 6.38815 13.8857 6.48859 13.774C6.58909 13.6623 6.73227 13.5984 6.88258 13.5984H8.14326C8.41416 13.5984 8.64136 13.8027 8.67001 14.072L8.85637 15.8217L11.9932 16.9121L15.1444 15.8118L15.5298 12.183H6.62004C6.34996 12.183 6.12311 11.9798 6.09349 11.7113L5.92385 10.1733C5.89795 9.93875 6.03031 9.71537 6.24844 9.62548L11.9508 7.27447C12.0155 7.2478 12.0523 7.17922 12.0387 7.11059C12.0251 7.04201 11.965 6.9926 11.8951 6.9926H5.89127C5.71052 6.9926 5.55893 6.85611 5.54006 6.67643L5.3664 5.02334C5.35595 4.92387 5.38822 4.82459 5.45517 4.7502C5.52212 4.67586 5.61752 4.63339 5.71755 4.63339H18.2799C18.3805 4.63339 18.4763 4.67632 18.5433 4.75132C18.6103 4.82638 18.6421 4.92642 18.6308 5.02635L18.3817 7.22047Z" fill="#ffffff"/>
</g>
<defs>
<clipPath id="clip0">
<rect width="24" height="24" fill="white"/>
</clipPath>
</defs>
</svg>
