<svg width="24" height="24" viewBox="0 0 24 24" fill="none" xmlns="http://www.w3.org/2000/svg">
<path d="M1.79244 0C1.57187 0 1.40752 0.17975 1.42709 0.399445L3.28667 21.2578C3.30625 21.4775 3.4961 21.7055 3.70874 21.7646L11.5999 23.9556C11.8124 24.0146 12.1602 24.0146 12.3728 23.9557L20.288 21.7611C20.5005 21.7021 20.6906 21.4741 20.7102 21.2545L22.5728 0.399445C22.5926 0.17975 22.428 0 22.2075 0H1.79244ZM18.6126 4.7838C18.5951 4.97975 18.5647 5.31992 18.5451 5.53962L18.4961 6.08689C18.4763 6.3065 18.4483 6.6206 18.4334 6.78479C18.4187 6.94906 18.4046 7.08341 18.4021 7.08341C18.3996 7.08341 18.217 7.08341 17.9964 7.08341H12.401C12.1804 7.08341 11.9981 7.08341 11.9957 7.08341C11.9933 7.08341 11.8108 7.08341 11.5902 7.08341H8.64333C8.42275 7.08341 8.2584 7.26317 8.27798 7.48286L8.44986 9.40429C8.46944 9.6239 8.66603 9.80373 8.88661 9.80373H11.5903C11.8109 9.80373 11.9934 9.80373 11.9958 9.80373C11.9982 9.80373 12.1805 9.80373 12.4011 9.80373H17.0484C17.2689 9.80373 17.6103 9.80373 17.8069 9.80373C18.0033 9.80373 18.1496 9.96407 18.1318 10.16C18.114 10.356 18.0834 10.6962 18.0638 10.9158L17.5111 17.1103C17.4914 17.33 17.4664 17.6106 17.4557 17.734C17.4447 17.8573 17.2619 18.0064 17.0493 18.0654L12.3865 19.3583C12.1739 19.4171 11.9973 19.4659 11.994 19.4666C11.9907 19.4673 11.8142 19.4196 11.6016 19.3607L6.93374 18.0654C6.72118 18.0065 6.53124 17.7784 6.51167 17.5587L6.21121 14.1863C6.19164 13.9666 6.35615 13.7869 6.57672 13.7869H7.00272C7.2233 13.7869 7.58424 13.7869 7.80482 13.7869H8.44008C8.66066 13.7869 8.85709 13.9666 8.87682 14.1863L8.99465 15.5065C9.01422 15.7262 9.2044 15.9529 9.41744 16.0105L11.6008 16.6001C11.8137 16.6576 11.9887 16.7047 11.9897 16.7047C11.9906 16.7047 12.1656 16.6575 12.3785 16.6L14.5659 16.0089C14.7787 15.9514 14.9691 15.7246 14.9888 15.505L15.226 12.86C15.2457 12.6403 15.0814 12.4605 14.8608 12.4605H12.4011C12.1805 12.4605 11.9982 12.4605 11.9958 12.4605C11.9934 12.4605 11.8109 12.4605 11.5903 12.4605H6.45777C6.23719 12.4605 6.04076 12.2807 6.02119 12.0611L5.43919 5.53954C5.41961 5.31984 5.38922 4.97975 5.37165 4.78372C5.35424 4.58776 5.52036 4.42743 5.74094 4.42743H11.5903C11.8109 4.42743 11.9934 4.42743 11.9958 4.42743C11.9982 4.42743 12.1805 4.42743 12.4011 4.42743H18.2434C18.4639 4.42743 18.6301 4.58776 18.6126 4.7838Z" fill="#ffffff"/>
</svg>
