<svg xmlns="http://www.w3.org/2000/svg" width="24" height="24" fill="none" xmlns:v="https://vecta.io/nano"><g clip-path="url(#A)"><path d="M23.18 3.077c.568 0 .923.463.792 1.035l-3.66 15.98c-.13.572-.697 1.035-1.265 1.035H.82c-.568 0-.923-.463-.792-1.035l3.66-15.98c.13-.572.697-1.035 1.265-1.035h18.23zm-8.375 9.345c.25-.394.227-.905-.1-1.243l-5.594-5.95c-.38-.405-1.037-.407-1.466-.004s-.468 1.057-.088 1.46l4.662 4.96v.1L4.8 17.128c-.45.327-.533.977-.187 1.453s.99.597 1.44.27l8.23-5.91c.28-.197.438-.366.514-.52zM12 16.82a.93.93 0 0 0-.658.268.93.93 0 0 0-.203.3c-.047.112-.072.233-.073.355a.93.93 0 0 0 .934.923h4.433a.93.93 0 0 0 .658-.268c.087-.086.156-.188.203-.3s.072-.233.073-.355-.025-.243-.073-.355-.116-.214-.203-.3a.93.93 0 0 0-.658-.268H12z" fill="#ffffff"/></g><defs><clipPath id="A"><path fill="#fff" d="M0 0h24v24H0z"/></clipPath></defs></svg>