<svg xmlns="http://www.w3.org/2000/svg" width="24" height="24" fill="none" xmlns:v="https://vecta.io/nano"><path d="M0 12v12h24V0H0v12zm19.34-.956c.6.152 1.074.423 1.5.865.22.236.55.666.575.77.008.03-1.036.73-1.668 1.123-.023.015-.115-.084-.217-.236-.3-.45-.633-.644-1.128-.678-.728-.05-1.196.33-1.192.967a.88.88 0 0 0 .102.45c.16.33.458.53 1.4.933 1.72.74 2.454 1.227 2.91 1.92.5.773.625 2.008.278 2.926-.38.998-1.325 1.676-2.655 1.9-.41.073-1.386.062-1.828-.018-.964-.172-1.878-.648-2.442-1.273-.22-.243-.652-.88-.625-.925a1.58 1.58 0 0 1 .22-.141l1.582-.915.145.214c.202.308.643.73.9.872.766.404 1.817.347 2.335-.118a.88.88 0 0 0 .241-.323c.054-.125.08-.26.072-.397 0-.278-.035-.4-.18-.6-.186-.266-.567-.5-1.65-.96-1.238-.533-1.77-.864-2.26-1.4-.305-.347-.53-.757-.66-1.2a4.83 4.83 0 0 1-.042-1.531c.255-1.197 1.158-2.03 2.46-2.278.423-.08 1.406-.05 1.82.053zm-5.634 1.002l.008.983H10.6v8.876h-2.2V13.03H5.258v-.964l.026-1c.012-.016 1.913-.024 4.217-.02l4.195.012.01.98z" fill="#ffffff"/></svg>