<svg xmlns="http://www.w3.org/2000/svg" width="24" height="24" fill="none" xmlns:v="https://vecta.io/nano"><g clip-path="url(#A)"><path d="M7.002 14.597l-2.2.945 2.036.87 2.36-.87-2.2-.945zm-3.306 1.18l-.074 4.25 3.217 1.417v-4.413l-3.143-1.254zm6.61 0L7.4 16.885v4.16l2.907-1.18v-4.088zm3.468-13.222l-2.214.944 2.05.87 2.36-.87-2.2-.944zM10.706 3.8v4.25l2.745.797.09-3.867-2.833-1.18zm6.14.236l-2.597 1.107V9.33l2.597-1.18V4.046zM3.38 8.537l-2.2.944 2.036.87 2.36-.87-2.2-.944zM.074 9.718L0 13.968l3.217 1.417v-4.412L.074 9.718zm6.61 0l-2.907 1.107v4.16l2.907-1.18V9.718zm3.778-1.337l-2.2.944 2.036.87 2.36-.87-2.2-.944zM7.157 9.56l-.074 4.25 3.217 1.417v-4.412L7.157 9.56zm6.61 0l-2.907 1.107v4.16l2.907-1.18V9.56zm6.926-7.005l-2.2.944 2.036.87 2.36-.87-2.2-.944zm-3.306 1.18l-.074 4.25 3.217 1.417V4.99L17.39 3.736zm6.61 0l-2.907 1.107v4.16L24 7.823V3.736z" fill="#ffffff"/></g><defs><clipPath id="A"><path fill="#fff" d="M0 0h24v24H0z"/></clipPath></defs></svg>