<svg width="24" height="24" viewBox="0 0 24 24" fill="none" xmlns="http://www.w3.org/2000/svg">
<path d="M20.61 0H3.39001C2.18901 0 1.23001 0.96 1.23001 2.16V21.841C1.23001 23.039 2.18901 24 3.39001 24H20.61C21.81 24 22.769 23.039 22.769 21.841V2.16C22.77 0.96 21.811 0 20.61 0ZM21.57 21.841C21.57 22.38 21.149 22.801 20.61 22.801H3.39001C2.85001 22.801 2.43001 22.38 2.43001 21.841V2.16C2.43001 1.62 2.85001 1.199 3.39001 1.199H20.61C21.149 1.199 21.57 1.62 21.57 2.16V21.841ZM6.63001 20.399L9.33001 18L6.63001 15.6V20.399ZM16.35 10.68C15.871 10.2 14.971 9.6 13.471 9.6C11.85 9.6 10.17 10.021 8.97101 10.44V3.6H6.57101V13.98L8.25101 13.2C8.25101 13.2 11.011 11.94 13.411 11.94C14.611 11.94 14.911 12.6 14.911 13.2V20.4H17.311V13.2C17.37 13.021 17.37 11.699 16.35 10.68V10.68ZM13.17 7.5H15.57C16.65 6.24 17.19 4.979 17.37 3.6H14.971C14.73 4.979 14.13 6.24 13.17 7.5Z" fill="#ffffff"/>
</svg>
